<svg xmlns="http://www.w3.org/2000/svg" width="1024" height="1024" viewBox="0 0 1024 1024">
  <defs>
    <linearGradient id="bg" x1="0" y1="0" x2="1" y2="1">
      <stop offset="0%" stop-color="#eef4ff"/>
      <stop offset="100%" stop-color="#ffffff"/>
    </linearGradient>
    <linearGradient id="paper" x1="0" y1="0" x2="1" y2="1">
      <stop offset="0%" stop-color="#ffffff"/>
      <stop offset="100%" stop-color="#f4f7fb"/>
    </linearGradient>
    <filter id="shadow" x="-20%" y="-20%" width="140%" height="140%">
      <feDropShadow dx="0" dy="18" stdDeviation="22" flood-color="#213a66" flood-opacity="0.2"/>
    </filter>
  </defs>

  <rect width="1024" height="1024" rx="220" fill="url(#bg)"/>

  <g transform="translate(512 520) rotate(-12) translate(-512 -520)" filter="url(#shadow)">
    <rect x="190" y="180" width="644" height="664" rx="58" fill="url(#paper)" stroke="#c7d1df" stroke-width="20"/>
    <path d="M708 180h68c32 0 58 26 58 58v74z" fill="#dde6f0"/>
    <path d="M708 180h68c32 0 58 26 58 58v74z" fill="#f6f9fc" opacity="0.65"/>

    <circle cx="398" cy="346" r="96" fill="#e6efff"/>
    <path d="M338 344c26-58 92-93 156-76 24 6 42 17 57 32-32-13-67-13-100-5-37 10-67 34-86 66-18 31-22 69-9 104-21-18-34-40-39-67-4-18-1-37 21-54z" fill="#4f81d8" opacity="0.92"/>
    <path d="M362 404c24 13 54 18 86 13 54-8 96-46 115-94 8 27 5 59-10 88-22 42-64 71-113 76-34 3-66-6-92-24z" fill="#c8d8ff"/>

    <text x="262" y="392" font-family="Arial, Helvetica, sans-serif" font-size="190" font-weight="800" fill="#4474d0">GB</text>
    <text x="422" y="664" font-family="Arial, Helvetica, sans-serif" font-size="184" font-weight="900" fill="#e24545">Box</text>

    <path d="M286 704h426" stroke="#dbe3ee" stroke-width="22" stroke-linecap="round"/>
    <path d="M286 760h278" stroke="#e5ebf3" stroke-width="18" stroke-linecap="round"/>
  </g>
</svg>
